<?xml version="1.0" standalone="no"?>
<!DOCTYPE svg PUBLIC "-//W3C//DTD SVG 20010904//EN"
 "http://www.w3.org/TR/2001/REC-SVG-20010904/DTD/svg10.dtd">
<svg version="1.0" xmlns="http://www.w3.org/2000/svg"
 width="225.000000pt" height="225.000000pt" viewBox="0 0 225.000000 225.000000"
 preserveAspectRatio="xMidYMid meet">

<g transform="translate(0.000000,225.000000) scale(0.100000,-0.100000)"
fill="#000000" stroke="none">
<path d="M480 1399 c-55 -25 -105 -71 -133 -124 -17 -32 -22 -57 -22 -125 0
-101 19 -146 89 -207 53 -47 101 -63 187 -63 70 0 148 30 183 69 20 22 20 22
-16 57 l-35 36 -37 -26 c-48 -32 -98 -42 -146 -27 -47 14 -97 69 -106 116 -30
162 120 268 252 179 20 -14 40 -22 43 -17 3 4 19 22 35 40 26 28 27 34 15 49
-8 10 -36 28 -64 40 -67 32 -179 33 -245 3z"/>
<path d="M1065 1404 c-141 -50 -210 -226 -146 -372 44 -99 130 -151 252 -152
61 0 85 5 126 25 28 14 59 35 69 46 17 19 17 21 -18 55 l-35 36 -40 -26 c-55
-36 -103 -43 -159 -21 -64 24 -97 77 -97 154 0 74 27 122 87 150 57 28 84 26
150 -8 l55 -30 35 42 34 41 -36 27 c-21 14 -52 31 -71 38 -46 15 -157 13 -206
-5z"/>
<path d="M1625 1397 c-99 -48 -155 -135 -155 -243 0 -114 51 -203 142 -248 98
-49 260 -28 322 43 20 22 20 22 -16 57 l-35 36 -37 -26 c-68 -46 -141 -46
-196 1 -43 36 -60 74 -60 136 0 60 23 104 73 141 42 31 123 28 175 -6 l39 -27
38 39 c20 21 34 43 31 49 -4 6 -28 23 -53 38 -39 22 -61 28 -132 31 -75 3 -93
0 -136 -21z"/>
</g>
</svg>
