<?xml version="1.0" standalone="no"?>
<!DOCTYPE svg PUBLIC "-//W3C//DTD SVG 20010904//EN"
 "http://www.w3.org/TR/2001/REC-SVG-20010904/DTD/svg10.dtd">
<svg version="1.0" xmlns="http://www.w3.org/2000/svg"
 width="225.000000pt" height="225.000000pt" viewBox="0 0 225.000000 225.000000"
 preserveAspectRatio="xMidYMid meet">

<g transform="translate(0.000000,225.000000) scale(0.100000,-0.100000)"
fill="#000000" stroke="none">
<path d="M1207 1173 c-33 -150 -33 -151 32 -160 33 -5 41 -3 41 11 0 10 -9 16
-25 16 -31 0 -39 17 -28 61 8 30 14 34 46 37 43 4 50 22 9 22 -38 0 -41 5 -32
46 7 29 5 34 -10 34 -15 0 -22 -14 -33 -67z"/>
<path d="M1547 1233 c-10 -9 -9 -23 1 -23 5 0 9 7 9 15 0 17 -1 18 -10 8z"/>
<path d="M1118 1160 c-57 -7 -62 -12 -77 -72 -15 -62 -14 -78 4 -78 13 0 35
56 35 92 0 20 29 38 59 38 17 0 39 17 30 24 -2 1 -25 -1 -51 -4z"/>
<path d="M538 1149 c-16 -9 -31 -44 -43 -106 -6 -28 -4 -33 13 -33 15 0 21 9
26 43 10 61 31 89 64 85 30 -3 31 -11 18 -86 -7 -39 -6 -43 10 -40 12 2 21 19
30 57 12 53 25 71 54 71 34 0 42 -15 31 -56 -15 -53 -14 -74 4 -74 17 0 37 68
33 113 l-3 32 -110 2 c-60 1 -118 -2 -127 -8z"/>
<path d="M860 1150 c0 -5 22 -10 49 -10 28 0 53 -4 56 -10 4 -6 -16 -10 -52
-10 -66 0 -103 -19 -103 -53 0 -43 15 -52 98 -55 l79 -4 12 62 c16 81 9 90
-75 90 -36 0 -64 -4 -64 -10z m102 -85 c-4 -23 -9 -25 -53 -25 -49 0 -65 10
-55 35 4 11 21 15 59 15 52 0 54 -1 49 -25z"/>
<path d="M1368 1144 c-47 -25 -52 -99 -8 -121 37 -19 150 -17 150 2 0 12 -13
15 -56 15 -60 0 -94 13 -94 35 0 12 17 15 85 15 69 0 85 3 85 15 0 12 -15 15
-72 16 -84 1 -59 16 30 18 28 1 52 6 52 11 0 16 -141 11 -172 -6z"/>
<path d="M1579 1144 c-25 -30 1 -49 72 -52 72 -3 88 -12 64 -36 -12 -12 -35
-16 -91 -16 -62 0 -74 -3 -74 -16 0 -14 11 -16 85 -12 92 5 125 22 125 64 0
31 -28 44 -94 44 -31 0 -56 5 -56 10 0 6 28 10 64 10 36 0 68 5 71 10 4 6 -23
10 -73 10 -60 0 -83 -4 -93 -16z"/>
</g>
</svg>
