<?xml version="1.0" standalone="no"?>
<!DOCTYPE svg PUBLIC "-//W3C//DTD SVG 20010904//EN"
 "http://www.w3.org/TR/2001/REC-SVG-20010904/DTD/svg10.dtd">
<svg version="1.0" xmlns="http://www.w3.org/2000/svg"
 width="183.000000pt" height="109.000000pt" viewBox="0 0 183.000000 109.000000"
 preserveAspectRatio="xMidYMid meet">

<g transform="translate(0.000000,109.000000) scale(0.100000,-0.100000)"
fill="#000000" stroke="none">
<path d="M734 896 c-35 -15 -654 -498 -697 -544 -33 -34 -44 -92 -28 -135 20
-51 54 -57 325 -57 l244 0 6 48 c3 26 8 73 12 105 l6 57 -106 0 c-58 0 -106 3
-106 8 1 7 243 194 261 200 6 2 7 -11 4 -35 -3 -21 -14 -137 -25 -258 -11
-121 -22 -235 -24 -252 l-5 -33 118 0 117 0 37 392 c41 424 42 450 27 478 -20
37 -108 51 -166 26z"/>
<path d="M1167 899 c-104 -25 -182 -99 -216 -206 -15 -48 -28 -149 -46 -348
-14 -154 -27 -295 -29 -313 l-5 -33 132 3 132 3 27 290 c15 160 27 300 27 311
1 12 10 32 20 45 19 24 23 24 238 29 214 5 219 5 264 32 49 29 92 95 104 161
l7 37 -308 -1 c-170 -1 -326 -5 -347 -10z"/>
<path d="M1216 473 c-3 -27 -8 -77 -12 -112 l-6 -63 123 4 c158 5 200 24 241
108 15 30 28 66 30 80 l3 25 -187 3 -186 2 -6 -47z"/>
</g>
</svg>
