<?xml version="1.0" standalone="no"?>
<!DOCTYPE svg PUBLIC "-//W3C//DTD SVG 20010904//EN"
 "http://www.w3.org/TR/2001/REC-SVG-20010904/DTD/svg10.dtd">
<svg version="1.0" xmlns="http://www.w3.org/2000/svg"
 width="225.000000pt" height="225.000000pt" viewBox="0 0 225.000000 225.000000"
 preserveAspectRatio="xMidYMid meet">

<g transform="translate(0.000000,225.000000) scale(0.100000,-0.100000)"
fill="#000000" stroke="none">
<path d="M996 1251 l74 -110 0 -120 0 -121 49 0 49 0 4 118 3 117 78 113 77
113 -57 -3 -57 -3 -40 -67 c-23 -36 -44 -70 -48 -73 -4 -4 -26 27 -50 69 l-43
75 -57 1 -56 0 74 -109z"/>
<path d="M118 1110 l3 -210 44 0 44 0 3 110 3 109 66 -107 c65 -106 65 -107
107 -110 l42 -3 0 155 c0 169 2 164 -62 180 l-27 6 -3 -77 -3 -78 -58 97 c-60
99 -56 96 -152 134 -7 3 -9 -69 -7 -206z"/>
<path d="M2008 1273 l-78 -25 0 -174 0 -174 40 0 40 0 0 76 c0 72 1 75 23 72
20 -3 22 -9 25 -75 l3 -73 34 0 33 0 4 80 c2 52 -1 86 -9 96 -8 11 -9 23 -3
35 15 27 12 151 -4 172 -16 21 -12 21 -108 -10z m52 -102 c0 -33 -3 -39 -25
-43 -23 -5 -25 -2 -25 33 0 20 6 40 13 42 30 13 37 6 37 -32z"/>
<path d="M1828 1223 l-68 -16 0 -153 0 -154 69 0 69 0 4 35 c4 33 3 34 -32 37
-32 3 -35 6 -35 33 0 27 4 30 33 33 30 3 32 6 32 43 0 38 -1 39 -32 37 -48 -4
-50 27 -4 46 30 13 36 20 36 45 0 17 -1 31 -2 30 -2 -1 -33 -8 -70 -16z"/>
<path d="M470 1056 l0 -156 100 0 100 0 0 35 0 35 -55 0 c-52 0 -55 1 -55 25
0 23 4 25 45 25 41 0 45 2 45 24 0 24 -21 36 -67 36 -17 0 -23 6 -23 21 0 20
4 21 45 17 l45 -6 0 33 c0 36 0 36 -100 50 -25 4 -53 9 -62 11 -17 5 -18 -7
-18 -150z"/>
<path d="M1692 1193 c-14 -3 -31 -20 -45 -46 l-22 -42 -3 38 c-3 36 -5 38 -35
35 l-32 -3 -3 -137 -3 -138 35 0 c35 0 35 1 38 48 l3 47 25 -47 c22 -45 27
-48 62 -48 l38 0 -40 80 -40 80 35 70 c21 42 30 69 23 69 -7 -1 -23 -4 -36 -6z"/>
<path d="M675 1157 c10 -41 55 -250 55 -254 0 -1 18 -3 39 -3 39 0 39 0 62 65
21 60 39 84 39 52 0 -7 7 -37 15 -65 15 -51 17 -52 54 -52 l38 0 28 103 c15
56 30 110 33 120 3 14 -2 17 -32 17 -35 0 -36 -1 -53 -57 l-17 -58 -19 63
c-14 46 -23 62 -37 62 -10 0 -25 3 -33 6 -11 4 -21 -12 -38 -60 -13 -35 -27
-63 -30 -60 -4 2 -11 28 -14 58 -9 67 -12 72 -58 79 -34 5 -37 4 -32 -16z"/>
<path d="M1393 1153 c-22 -4 -23 -8 -23 -129 l0 -124 30 0 c29 0 30 1 30 50 0
38 4 50 15 50 11 0 15 -12 15 -50 0 -49 1 -50 30 -50 l29 0 0 118 c-1 64 -6
123 -11 130 -10 11 -68 14 -115 5z m73 -65 c-3 -13 -6 -26 -6 -30 0 -5 -7 -8
-15 -8 -10 0 -15 10 -15 30 0 24 4 30 21 30 17 0 20 -4 15 -22z"/>
<path d="M1260 1143 c-45 -9 -50 -20 -50 -120 0 -109 8 -123 68 -123 61 0 72
20 72 127 0 74 -3 93 -18 106 -19 17 -26 18 -72 10z m38 -125 c-2 -60 -6 -73
-20 -76 -16 -3 -18 6 -18 72 0 70 2 76 20 76 19 0 21 -5 18 -72z"/>
</g>
</svg>
