<?xml version="1.0" standalone="no"?>
<!DOCTYPE svg PUBLIC "-//W3C//DTD SVG 20010904//EN"
 "http://www.w3.org/TR/2001/REC-SVG-20010904/DTD/svg10.dtd">
<svg version="1.0" xmlns="http://www.w3.org/2000/svg"
 width="276.000000pt" height="182.000000pt" viewBox="0 0 276.000000 182.000000"
 preserveAspectRatio="xMidYMid meet">

<g transform="translate(0.000000,182.000000) scale(0.100000,-0.100000)"
fill="#000000" stroke="none">
<path d="M1188 1787 c-54 -18 -102 -37 -107 -42 -11 -12 -126 -282 -207 -485
-31 -80 -60 -149 -64 -153 -6 -7 -331 -78 -337 -73 0 0 62 158 138 351 81 203
139 360 137 375 -4 37 -55 40 -87 6 -14 -15 -85 -179 -171 -393 l-147 -368
-39 -12 c-21 -7 -92 -26 -156 -44 -142 -38 -157 -47 -140 -83 6 -14 26 -32 44
-40 18 -7 52 -35 76 -60 26 -28 55 -49 73 -53 23 -4 28 -10 24 -22 -28 -70
-178 -490 -187 -526 -14 -51 -5 -78 29 -83 43 -6 61 29 168 321 57 158 109
295 114 304 6 12 57 28 175 53 91 20 166 35 166 33 0 -2 -40 -124 -89 -271
-49 -147 -95 -291 -102 -320 l-13 -54 76 -75 c64 -62 80 -73 95 -64 13 6 41
74 87 208 37 109 104 297 149 419 l81 221 50 18 c33 11 63 31 86 58 19 22 59
63 88 93 86 87 67 131 -53 119 l-63 -7 109 278 c127 323 141 364 127 387 -12
22 -16 22 -130 -16z"/>
<path d="M2595 1779 c-44 -17 -88 -38 -99 -47 -35 -32 -278 -549 -422 -902
-46 -113 -89 -214 -94 -225 -7 -14 -9 18 -5 105 7 137 20 257 65 575 16 116
35 272 42 349 12 133 11 139 -7 152 -24 18 -48 13 -167 -34 -82 -33 -95 -41
-111 -73 -49 -102 -295 -858 -419 -1293 -57 -197 -69 -254 -62 -275 12 -33 53
-40 77 -13 9 10 62 167 116 348 100 333 214 693 250 794 19 53 20 54 20 20 1
-19 -10 -147 -23 -285 -45 -465 -46 -606 -2 -664 71 -96 113 -141 132 -141 24
0 15 -21 160 345 152 383 389 912 369 825 -43 -198 -197 -1030 -210 -1140 l-7
-55 82 -72 c84 -76 87 -78 107 -65 8 5 70 292 148 680 74 370 155 764 180 875
25 111 43 212 40 224 -8 32 -59 30 -160 -8z"/>
<path d="M1093 762 c-36 -28 -45 -67 -32 -129 l12 -54 -40 -42 c-53 -55 -75
-99 -75 -154 0 -57 22 -89 72 -104 36 -11 44 -10 90 14 38 20 50 23 50 12 0
-17 36 -38 50 -30 12 7 12 51 1 80 -6 14 -1 29 15 51 33 42 42 92 19 100 -10
4 -30 -1 -46 -10 -29 -17 -29 -17 -39 9 -15 38 -13 50 14 82 60 72 70 129 31
168 -29 30 -89 33 -122 7z m60 -96 c-22 -28 -33 -25 -33 9 0 32 21 49 38 31
13 -13 12 -18 -5 -40z m-35 -215 c9 -26 8 -32 -15 -46 -38 -25 -53 -5 -29 40
23 43 31 44 44 6z"/>
</g>
</svg>
