<?xml version="1.0" standalone="no"?>
<!DOCTYPE svg PUBLIC "-//W3C//DTD SVG 20010904//EN"
 "http://www.w3.org/TR/2001/REC-SVG-20010904/DTD/svg10.dtd">
<svg version="1.0" xmlns="http://www.w3.org/2000/svg"
 width="225.000000pt" height="225.000000pt" viewBox="0 0 225.000000 225.000000"
 preserveAspectRatio="xMidYMid meet">

<g transform="translate(0.000000,225.000000) scale(0.100000,-0.100000)"
fill="#000000" stroke="none">
<path d="M147 1302 l-37 -38 0 -124 0 -124 42 -43 42 -43 81 0 81 0 38 39 c31
32 39 47 40 80 l1 41 -47 0 c-45 0 -47 -1 -50 -32 -3 -32 -4 -33 -56 -36 -76
-4 -82 3 -82 110 0 117 6 128 74 128 57 0 66 -7 66 -56 0 -22 4 -24 48 -24
l47 0 -1 46 c-1 37 -7 52 -35 80 -33 34 -33 34 -124 34 l-91 0 -37 -38z"/>
<path d="M530 1135 l0 -205 45 0 45 0 0 55 c0 50 2 55 22 55 14 0 47 -25 90
-67 l68 -68 32 33 32 32 -39 40 -39 40 32 33 c30 31 32 37 32 109 0 75 -1 78
-37 113 l-36 35 -124 0 -123 0 0 -205z m218 113 c16 -16 16 -100 0 -116 -7 -7
-38 -12 -70 -12 l-58 0 0 70 0 70 58 0 c32 0 63 -5 70 -12z"/>
<path d="M1012 1247 c-91 -92 -92 -93 -92 -142 0 -49 2 -53 63 -113 60 -59 65
-62 112 -62 50 0 51 0 143 93 l92 92 0 56 c0 53 -1 56 -58 112 -56 55 -59 57
-112 57 l-55 0 -93 -93z m200 -24 c21 -20 38 -42 38 -47 0 -16 -143 -156 -159
-156 -20 0 -81 60 -81 79 0 17 138 161 154 161 6 0 27 -17 48 -37z"/>
<path d="M1407 1138 l2 -203 43 0 43 0 3 48 3 47 78 0 c76 0 77 0 114 38 36
37 37 39 37 118 0 79 0 80 -38 117 l-38 37 -124 0 -125 0 2 -202z m223 103 c5
-11 10 -36 10 -56 0 -63 -13 -75 -80 -75 l-60 0 0 75 0 75 60 0 c48 0 61 -4
70 -19z"/>
<path d="M1818 1135 l3 -205 44 0 45 0 0 50 0 50 78 0 c77 0 78 0 115 38 36
37 37 39 37 118 0 79 0 80 -38 117 l-38 37 -124 0 -125 0 3 -205z m222 106 c5
-11 10 -36 10 -56 0 -63 -13 -75 -80 -75 l-60 0 0 75 0 75 60 0 c48 0 61 -4
70 -19z"/>
</g>
</svg>
