<?xml version="1.0" standalone="no"?>
<!DOCTYPE svg PUBLIC "-//W3C//DTD SVG 20010904//EN"
 "http://www.w3.org/TR/2001/REC-SVG-20010904/DTD/svg10.dtd">
<svg version="1.0" xmlns="http://www.w3.org/2000/svg"
 width="275.000000pt" height="183.000000pt" viewBox="0 0 275.000000 183.000000"
 preserveAspectRatio="xMidYMid meet">

<g transform="translate(0.000000,183.000000) scale(0.100000,-0.100000)"
fill="#000000" stroke="none">
<path d="M320 921 l0 -231 98 0 c106 0 171 20 191 58 21 39 13 108 -15 141
-14 17 -32 31 -41 31 -9 0 0 13 21 34 31 28 36 40 36 77 -1 84 -44 111 -187
117 l-103 5 0 -232z m222 162 c26 -23 24 -84 -3 -109 -15 -14 -40 -20 -95 -22
l-74 -4 0 76 0 76 77 0 c57 0 81 -4 95 -17z m-22 -191 c43 -21 65 -62 53 -100
-13 -39 -65 -62 -140 -62 l-63 0 0 90 0 90 58 0 c34 0 71 -7 92 -18z"/>
<path d="M1540 920 c0 -223 1 -230 20 -230 19 0 20 7 20 124 l0 125 29 20 c42
30 84 37 104 16 14 -14 17 -39 17 -151 l0 -134 25 0 25 0 0 124 c0 130 -10
180 -40 196 -32 17 -95 12 -123 -10 -14 -11 -28 -20 -31 -20 -3 0 -6 38 -6 85
0 78 -2 85 -20 85 -19 0 -20 -7 -20 -230z"/>
<path d="M1890 920 c0 -223 1 -230 20 -230 17 0 20 7 20 46 0 37 6 54 32 86
l32 40 43 -86 c37 -75 47 -86 69 -86 14 0 24 3 22 8 -1 4 -25 51 -53 104 l-49
96 47 61 48 61 -28 -1 c-23 0 -40 -15 -93 -82 l-65 -82 -3 148 c-2 139 -4 147
-22 147 -19 0 -20 -8 -20 -230z"/>
<path d="M755 998 c-37 -29 -55 -76 -55 -144 0 -106 51 -166 142 -166 51 0 89
19 112 55 8 13 7 20 -3 27 -11 6 -22 2 -37 -15 -59 -64 -152 -30 -170 63 l-6
32 112 0 113 0 -7 31 c-3 17 -6 40 -6 51 0 11 -15 35 -34 54 -30 30 -41 34
-84 34 -35 0 -57 -6 -77 -22z m108 -19 c26 -12 47 -47 47 -80 0 -18 -6 -20
-82 -17 -77 3 -83 5 -80 23 9 66 61 99 115 74z"/>
<path d="M1030 855 l0 -165 25 0 c25 0 25 0 25 96 0 119 16 160 72 183 23 10
38 23 38 34 0 28 -47 21 -81 -12 l-29 -29 0 29 c0 24 -4 29 -25 29 l-25 0 0
-165z"/>
<path d="M1255 995 c-31 -30 -34 -86 -6 -114 11 -11 45 -27 75 -37 58 -18 96
-45 96 -67 0 -54 -96 -73 -144 -28 -21 20 -28 22 -41 11 -22 -18 -19 -26 18
-48 58 -36 137 -33 178 7 59 59 29 123 -76 161 -70 25 -85 36 -85 61 0 48 87
61 125 18 14 -14 21 -16 32 -8 20 17 16 27 -19 49 -49 29 -122 27 -153 -5z"/>
<path d="M2221 994 c-35 -29 -38 -39 -14 -48 10 -4 25 2 40 16 31 29 99 31
119 3 17 -23 18 -54 2 -59 -98 -27 -136 -42 -160 -66 -36 -36 -38 -87 -5 -125
28 -34 91 -37 141 -7 34 20 35 20 41 1 4 -10 14 -19 24 -19 15 0 17 12 14 128
-2 70 -6 137 -9 149 -11 55 -139 73 -193 27z m159 -173 c0 -43 -4 -52 -29 -70
-46 -33 -85 -37 -110 -12 -26 26 -26 42 -3 71 14 18 106 58 135 60 4 0 7 -22
7 -49z"/>
</g>
</svg>
