<svg xmlns="http://www.w3.org/2000/svg" width="290" height="174" viewBox="0 0 290 174">
<g>
<path d="M 0.00 0.00 L 290.00 0.00 L 290.00 174.00 L 0.00 174.00 ZM 61.26 173.18 C61.94,173.62 99.89,173.98 145.60,173.98 C224.94,174.00 228.76,173.92 230.35,172.16 C231.87,170.48 231.99,163.43 231.76,86.41 L 231.50 2.50 L 145.75 2.24 L 60.00 1.99 L 59.99 4.24 C59.98,5.48 59.99,43.83 60.00,89.45 C60.02,154.30 60.29,172.57 61.26,173.18 ZM 169.36 117.60 C160.82,121.71 151.55,123.17 144.94,121.44 C142.50,120.80 137.57,118.76 134.00,116.89 C127.66,113.59 127.20,113.50 115.50,113.50 L 103.50 113.50 L 103.50 29.50 L 130.50 29.21 C160.04,28.90 162.16,29.17 173.10,34.60 C189.53,42.76 199.28,63.06 196.04,82.39 C193.63,96.81 182.76,111.15 169.36,117.60 ZM 127.52 103.86 C128.09,106.19 128.21,106.21 139.30,105.81 C151.92,105.36 156.09,103.84 162.60,97.33 C168.79,91.14 170.50,86.10 170.50,74.00 C170.50,64.94 170.18,62.88 168.16,59.00 C165.15,53.21 161.62,49.48 156.00,46.16 C151.80,43.68 150.70,43.50 139.50,43.50 L 127.50 43.50 L 127.22 72.50 C127.07,88.45 127.20,102.56 127.52,103.86 ZM 151.03 147.92 C150.74,149.80 149.94,151.53 149.25,151.75 C148.33,152.06 148.00,150.40 148.00,145.58 C148.00,139.28 148.10,139.00 150.42,139.00 C152.33,139.00 153.10,139.79 154.06,142.68 L 155.28 146.37 L 156.89 142.93 C157.91,140.78 159.35,139.38 160.76,139.18 C162.89,138.88 163.00,139.19 163.00,145.43 C163.00,150.60 162.68,152.00 161.50,152.00 C160.68,152.00 160.00,151.18 160.00,150.17 C160.00,147.30 158.79,146.80 157.59,149.18 C155.84,152.66 154.28,152.37 152.88,148.30 L 151.57 144.50 ZM 183.81 148.17 C183.64,149.92 182.94,151.53 182.25,151.76 C181.34,152.06 181.00,150.40 181.00,145.58 C181.00,139.98 181.26,139.00 182.75,138.99 C183.71,138.99 185.73,140.45 187.22,142.24 L 189.95 145.50 L 189.97 142.25 C189.99,139.65 190.41,139.00 192.05,139.00 C193.92,139.00 194.07,139.52 193.80,145.24 C193.43,152.91 191.36,154.07 187.80,148.58 C184.96,144.19 184.21,144.12 183.81,148.17 ZM 201.00 147.99 C200.67,150.26 199.89,151.59 198.75,151.81 C197.23,152.10 197.00,151.29 197.00,145.57 C197.00,139.70 197.21,139.00 198.97,139.00 C200.05,139.00 201.94,140.35 203.16,142.00 C205.96,145.79 207.00,145.79 207.00,142.03 C207.00,139.76 207.37,139.20 208.55,139.66 C209.74,140.11 210.02,141.53 209.80,145.86 C209.42,152.97 207.30,153.84 203.86,148.30 L 201.50 144.50 ZM 92.17 150.35 C91.02,151.39 88.61,152.00 85.67,152.00 L 81.00 152.00 L 81.00 145.43 C81.00,139.21 81.12,138.88 83.22,139.18 C85.21,139.47 85.41,140.00 85.14,144.25 C84.88,148.46 85.08,149.00 86.89,149.00 C90.76,149.00 91.55,143.94 88.09,141.28 C86.71,140.23 86.84,140.06 89.05,140.03 C90.45,140.01 92.14,140.54 92.80,141.20 C94.62,143.02 94.25,148.47 92.17,150.35 ZM 171.22 149.70 C170.27,150.03 168.94,150.74 168.26,151.27 C165.92,153.08 165.81,149.31 168.05,144.10 C171.40,136.31 174.02,137.14 177.53,147.09 C178.75,150.55 178.75,151.16 177.50,151.64 C176.70,151.94 175.35,151.49 174.50,150.64 C173.63,149.77 172.18,149.36 171.22,149.70 ZM 127.75 150.76 C122.81,154.71 116.00,151.41 116.00,145.07 C116.00,140.14 123.23,137.24 127.56,140.43 C130.29,142.45 128.17,144.74 125.25,142.92 C122.55,141.24 120.00,142.42 120.00,145.35 C120.00,148.45 122.61,150.79 124.24,149.16 C125.60,147.80 129.00,147.60 129.00,148.88 C129.00,149.36 128.44,150.21 127.75,150.76 ZM 134.82 149.17 C134.41,151.98 132.34,152.65 131.57,150.23 C130.99,148.40 131.68,139.99 132.47,139.20 C133.34,138.32 135.00,140.24 135.00,142.13 C135.00,145.20 140.38,144.34 140.83,141.19 C141.01,139.92 141.68,139.06 142.33,139.28 C143.97,139.82 143.90,151.20 142.25,151.75 C141.47,152.01 141.00,151.21 141.00,149.58 C141.00,147.39 140.55,147.00 138.07,147.00 C135.83,147.00 135.06,147.51 134.82,149.17 ZM 106.76 150.25 C106.30,151.64 97.45,152.57 96.72,151.30 C96.47,150.86 96.31,148.02 96.38,145.00 L 96.50 139.50 L 101.25 139.50 C106.63,139.50 108.22,141.33 103.25,141.81 C98.95,142.23 98.78,145.00 103.06,145.00 C104.84,145.00 105.86,145.42 105.50,146.00 C105.16,146.55 103.78,147.00 102.44,147.00 C101.10,147.00 100.00,147.45 100.00,148.00 C100.00,148.55 101.61,149.00 103.58,149.00 C106.00,149.00 107.03,149.41 106.76,150.25 ZM 113.80 145.24 C113.56,150.25 113.15,151.55 111.75,151.81 C110.23,152.10 110.00,151.29 110.00,145.57 C110.00,139.62 110.19,139.00 112.05,139.00 C113.92,139.00 114.07,139.52 113.80,145.24 Z" fill="rgb(0,0,0)"/>
<path d="M 61.26 173.18 C60.29,172.57 60.02,154.30 60.00,89.45 C59.99,43.83 59.98,5.48 59.99,4.24 L 60.00 1.99 L 145.75 2.24 L 231.50 2.50 L 231.76 86.41 C231.99,163.43 231.87,170.48 230.35,172.16 C228.76,173.92 224.94,174.00 145.60,173.98 C99.89,173.98 61.94,173.62 61.26,173.18 ZM 127.75 150.76 C128.44,150.21 129.00,149.36 129.00,148.88 C129.00,147.60 125.60,147.80 124.24,149.16 C122.61,150.79 120.00,148.45 120.00,145.35 C120.00,142.42 122.55,141.24 125.25,142.92 C128.17,144.74 130.29,142.45 127.56,140.43 C123.23,137.24 116.00,140.14 116.00,145.07 C116.00,151.41 122.81,154.71 127.75,150.76 ZM 92.17 150.35 C94.25,148.47 94.62,143.02 92.80,141.20 C92.14,140.54 90.45,140.01 89.05,140.03 C86.84,140.06 86.71,140.23 88.09,141.28 C91.55,143.94 90.76,149.00 86.89,149.00 C85.08,149.00 84.88,148.46 85.14,144.25 C85.41,140.00 85.21,139.47 83.22,139.18 C81.12,138.88 81.00,139.21 81.00,145.43 L 81.00 152.00 L 85.67 152.00 C88.61,152.00 91.02,151.39 92.17,150.35 ZM 106.76 150.25 C107.03,149.41 106.00,149.00 103.58,149.00 C101.61,149.00 100.00,148.55 100.00,148.00 C100.00,147.45 101.10,147.00 102.44,147.00 C103.78,147.00 105.16,146.55 105.50,146.00 C105.86,145.42 104.84,145.00 103.06,145.00 C98.78,145.00 98.95,142.23 103.25,141.81 C108.22,141.33 106.63,139.50 101.25,139.50 L 96.50 139.50 L 96.38 145.00 C96.31,148.02 96.47,150.86 96.72,151.30 C97.45,152.57 106.30,151.64 106.76,150.25 ZM 113.80 145.24 C114.07,139.52 113.92,139.00 112.05,139.00 C110.19,139.00 110.00,139.62 110.00,145.57 C110.00,151.29 110.23,152.10 111.75,151.81 C113.15,151.55 113.56,150.25 113.80,145.24 ZM 134.82 149.17 C135.06,147.51 135.83,147.00 138.07,147.00 C140.55,147.00 141.00,147.39 141.00,149.58 C141.00,151.21 141.47,152.01 142.25,151.75 C143.90,151.20 143.97,139.82 142.33,139.28 C141.68,139.06 141.01,139.92 140.83,141.19 C140.38,144.34 135.00,145.20 135.00,142.13 C135.00,140.24 133.34,138.32 132.47,139.20 C131.68,139.99 130.99,148.40 131.57,150.23 C132.34,152.65 134.41,151.98 134.82,149.17 ZM 151.03 147.92 L 151.57 144.50 L 152.88 148.30 C154.28,152.37 155.84,152.66 157.59,149.18 C158.79,146.80 160.00,147.30 160.00,150.17 C160.00,151.18 160.68,152.00 161.50,152.00 C162.68,152.00 163.00,150.60 163.00,145.43 C163.00,139.19 162.89,138.88 160.76,139.18 C159.35,139.38 157.91,140.78 156.89,142.93 L 155.28 146.37 L 154.06 142.68 C153.10,139.79 152.33,139.00 150.42,139.00 C148.10,139.00 148.00,139.28 148.00,145.58 C148.00,150.40 148.33,152.06 149.25,151.75 C149.94,151.53 150.74,149.80 151.03,147.92 ZM 171.22 149.70 C172.18,149.36 173.63,149.77 174.50,150.64 C175.35,151.49 176.70,151.94 177.50,151.64 C178.75,151.16 178.75,150.55 177.53,147.09 C174.02,137.14 171.40,136.31 168.05,144.10 C165.81,149.31 165.92,153.08 168.26,151.27 C168.94,150.74 170.27,150.03 171.22,149.70 ZM 183.81 148.17 C184.21,144.12 184.96,144.19 187.80,148.58 C191.36,154.07 193.43,152.91 193.80,145.24 C194.07,139.52 193.92,139.00 192.05,139.00 C190.41,139.00 189.99,139.65 189.97,142.25 L 189.95 145.50 L 187.22 142.24 C185.73,140.45 183.71,138.99 182.75,138.99 C181.26,139.00 181.00,139.98 181.00,145.58 C181.00,150.40 181.34,152.06 182.25,151.76 C182.94,151.53 183.64,149.92 183.81,148.17 ZM 201.00 147.99 L 201.50 144.50 L 203.86 148.30 C207.30,153.84 209.42,152.97 209.80,145.86 C210.02,141.53 209.74,140.11 208.55,139.66 C207.37,139.20 207.00,139.76 207.00,142.03 C207.00,145.79 205.96,145.79 203.16,142.00 C201.94,140.35 200.05,139.00 198.97,139.00 C197.21,139.00 197.00,139.70 197.00,145.57 C197.00,151.29 197.23,152.10 198.75,151.81 C199.89,151.59 200.67,150.26 201.00,147.99 ZM 169.36 117.60 C182.76,111.15 193.63,96.81 196.04,82.39 C199.28,63.06 189.53,42.76 173.10,34.60 C162.16,29.17 160.04,28.90 130.50,29.21 L 103.50 29.50 L 103.50 71.50 L 103.50 113.50 L 115.50 113.50 C127.20,113.50 127.66,113.59 134.00,116.89 C137.57,118.76 142.50,120.80 144.94,121.44 C151.55,123.17 160.82,121.71 169.36,117.60 ZM 127.52 103.86 C127.20,102.56 127.07,88.45 127.22,72.50 L 127.50 43.50 L 139.50 43.50 C150.70,43.50 151.80,43.68 156.00,46.16 C161.62,49.48 165.15,53.21 168.16,59.00 C170.18,62.88 170.50,64.94 170.50,74.00 C170.50,86.10 168.79,91.14 162.60,97.33 C156.09,103.84 151.92,105.36 139.30,105.81 C128.21,106.21 128.09,106.19 127.52,103.86 Z" fill="rgb(254,254,254)"/>
</g>
</svg>